/* XPM */
static char *Water_11718644277[] = {
/* columns rows colors chars-per-pixel */
"64 64 233 2 ",
"   c #004D57",
".  c #044B5A",
"X  c #01525B",
"o  c #0B545E",
"O  c #06595D",
"+  c #12545E",
"@  c #11585E",
"#  c #0D4C61",
"$  c #174E61",
"%  c #0C5462",
"&  c #045C63",
"*  c #0C5B65",
"=  c #0D5C6A",
"-  c #0A5565",
";  c #135564",
":  c #1A5666",
">  c #125B66",
",  c #1C5967",
"<  c #13566C",
"1  c #1A556B",
"2  c #145C6B",
"3  c #1A5D6C",
"4  c #155E71",
"5  c #1C5E72",
"6  c #1F5F78",
"7  c #205D6F",
"8  c #255569",
"9  c #235E73",
"0  c #225E78",
"q  c #036265",
"w  c #0B6266",
"e  c #04636A",
"r  c #0D636C",
"t  c #0C696D",
"y  c #07686F",
"u  c #126166",
"i  c #14636C",
"p  c #1A636E",
"a  c #136A6E",
"s  c #19696F",
"d  c #0D716F",
"f  c #12716D",
"g  c #0E6571",
"h  c #0D6B73",
"j  c #056D70",
"k  c #146472",
"l  c #1B6472",
"z  c #146B73",
"x  c #1B6B74",
"c  c #1B6679",
"v  c #156E79",
"b  c #1C6C7A",
"n  c #0E7174",
"m  c #0E757A",
"M  c #147275",
"N  c #1A7275",
"B  c #15747A",
"V  c #1C737B",
"C  c #167B7F",
"Z  c #1C7A7D",
"A  c #177B76",
"S  c #21646E",
"D  c #226474",
"F  c #2A6673",
"G  c #226B75",
"H  c #226479",
"J  c #226D7A",
"K  c #296C7C",
"L  c #2A6779",
"P  c #217177",
"I  c #23737C",
"U  c #2A737C",
"Y  c #237A7E",
"T  c #29797F",
"R  c #31697A",
"E  c #27817F",
"W  c #1D7481",
"Q  c #1C7B82",
"!  c #157981",
"~  c #246E82",
"^  c #2D6D81",
"/  c #247482",
"(  c #2B7583",
")  c #247C83",
"_  c #2B7B84",
"`  c #2D7788",
"'  c #267D89",
"]  c #2C7D89",
"[  c #267788",
"{  c #327383",
"}  c #337C85",
"|  c #327D8B",
" . c #377A8B",
".. c #347D90",
"X. c #1D8285",
"o. c #1F8389",
"O. c #1A8884",
"+. c #248286",
"@. c #2A8285",
"#. c #24838A",
"$. c #2C838B",
"%. c #258A8C",
"&. c #2D8A8C",
"*. c #278987",
"=. c #33848C",
"-. c #39858E",
";. c #328B8E",
":. c #398A8E",
">. c #318085",
",. c #2C928D",
"<. c #27908B",
"1. c #2D8591",
"2. c #268A91",
"3. c #2D8C92",
"4. c #348492",
"5. c #3A8593",
"6. c #348C93",
"7. c #3A8C93",
"8. c #358C98",
"9. c #3D8E99",
"0. c #3E8798",
"q. c #259494",
"w. c #2B9294",
"e. c #2D9598",
"r. c #29999A",
"t. c #359294",
"y. c #3A9395",
"u. c #35939A",
"i. c #3C949B",
"p. c #359A9C",
"a. c #3B9A9C",
"s. c #389897",
"d. c #3DA29E",
"f. c #3E94A2",
"g. c #369DA2",
"h. c #3C9CA2",
"j. c #3595A1",
"k. c #3CA2A4",
"l. c #3DA4A9",
"z. c #3BA8A6",
"x. c #418E95",
"c. c #418F9A",
"v. c #498D9A",
"b. c #42949C",
"n. c #49949C",
"m. c #429B9E",
"M. c #47979B",
"N. c #4495A1",
"B. c #4996A1",
"V. c #449CA3",
"C. c #4A9CA4",
"Z. c #469EA8",
"A. c #4C9FAA",
"S. c #539DA9",
"D. c #44A3A4",
"F. c #4AA2A5",
"G. c #43AAA5",
"H. c #44A4AA",
"J. c #4BA4AA",
"K. c #45AAAC",
"L. c #4CAAAC",
"P. c #4CA8A7",
"I. c #51A3A6",
"U. c #52A5AC",
"Y. c #52ABAE",
"T. c #5CAAAE",
"R. c #47B3AF",
"E. c #4BB4AD",
"W. c #50B0AF",
"Q. c #4DA5B0",
"!. c #4CADB2",
"~. c #44ADB1",
"^. c #53ACB3",
"/. c #5AADB4",
"(. c #57A5B0",
"). c #4DB3B4",
"_. c #4DB3B9",
"`. c #4AB9B6",
"'. c #54B3B4",
"]. c #5BB3B6",
"[. c #53BAB6",
"{. c #53B4BA",
"}. c #5BB5BA",
"|. c #54BABB",
" X c #5CBBBC",
".X c #62B6BC",
"XX c #62BBBD",
"oX c #69BBBF",
"OX c #61B0B7",
"+X c #57C2BC",
"@X c #66C1BE",
"#X c #5CBEC2",
"$X c #53B8C2",
"%X c #65BCC1",
"&X c #6CBBC4",
"*X c #69BBC6",
"=X c #5CC4C4",
"-X c #5EC9C5",
";X c #5AC6C6",
":X c #64C3C3",
">X c #6AC3C5",
",X c #64C5C9",
"<X c #69C4CB",
"1X c #64CACB",
"2X c #6CCCCD",
"3X c #65C9C5",
"4X c #70C5C7",
"5X c #71C3CA",
"6X c #72CBCC",
"7X c #75CDCA",
"8X c #6AD1CF",
"9X c #6CCDD2",
"0X c #67CFD0",
"qX c #72CCD2",
"wX c #6CD3D3",
"eX c #6FD9D9",
"rX c #6DDDD4",
"tX c #73D4D4",
"yX c #7DD1D5",
"uX c #7BDADB",
"iX c #75D7DA",
"pX c #79D4CF",
"aX c #74E2D9",
"sX c #79EBE3",
"dX c #80D4DA",
"fX c #86DCE1",
"gX c #83E5E6",
"hX c #84E6E9",
"jX c #86E8E8",
"kX c #97EDF2",
"lX c #9AF6FB",
"zX c #8BECED",
"xX c #A0F0F7",
/* pixels */
"w.E.7.T U P S  .{ > b | 3 { L 3 6.@.R 8 8 L N.s.) /.5Xx _ l 3 F D 7 F + :.'.G.A S F E T.M.y.+XaX+X,.&.:.3 D ` i.B Q * 7.1X+X%.O.",
"d.q a M._ > + + K 3 c ` ; ^ K | Y.>., 8 8 p m.Y.Y / &Xc.=.b.K S , , p : OX'.<.d.F + @ p E E K.G.G.[.W.I G 3 J =.B z T OX'.k.k.K.",
"6.Z * -.S.J K L ^ ( c ( ( K l x b.> S 8 3 > > > S L 3 2 >._ U 3 S S 3 x..XY.@Xs.s T T >.E @.t.`.[.[.[.F.I G J ) +.+.7.dXfX<XP.a ",
"7.b.S.T.G I S.^ D < K G l *   B.I u S v.x.OX7.( ; , p l ] P I 3 3 3 _ C.y.s.d.s.F.:.T x s u E w.d.,.s.6.4.b.5.$.%.s.U i &.<XY.@.",
"2 k 2 *X] 2 2 5 L 5 H D # G .X:Xw p oXoXD.Y.+.Y 5.U , J ] =.D S ; p ) s.m.P.P.P.a.&.i V V M +.a.+.X.z N I ( B.b ) A x p N L.b.s ",
"l k | | = = ( ^ 1 1 H 2 3 2 ].oXN :._ N y.L.3.s.qX5XC.N.} U U G p p V t.].XX@X].].6.N ) 6.i.H.L.$.;.V x J G b A.s.t b.Y '.&.I s ",
"c ` p X z / c 6 1 0 ^ K : p F.4X>.M.> O * N @.D.].^.V.].b.G P G D T ) t.F.@.;.L.D.6X XD.s.h.$.=.Y.c.x b c l * x qXt.y.6X&.) N s ",
"] I 2 c 4.` l l ^ 0 R 3 o T pX7X4X7.i G T _ Y Y M s.{.^.) J F P U | A.6.N @.y.) r '.*X1.t.8.) b =.C.( x p 3 3 % b.6.m.>XZ A @.Y ",
"] U T } ` U D {  .L K 2 > :.@XdX@X.XF.-.T S 2 p i & Y y.I i F G P b.b.U k $.6.V i %XJ.Z B / _ J b Z.J k 2 l , G 7.=.x.4XA F.w Y ",
"b.p i > x ( p L  ...=./ I x.7X7Xd.y.N u : + ; ; c G b y.I s P p | /.] ` Y ) 6.x w .X@.M V J | l z b./ 2 3 < 3 -.P 7.s XXm.Y.Y..X",
"I i , p p u T U K x i x E ;.jXE N & s * + : : , ; J x i.@.I ;.=.M.I p I _ ;.J U _ V.) Z x x D U b b.l 2 , 3 , v.I P P M.>X^.) Z ",
"T @ S p > G G o > - Y  X@XM.@X.XN ) =.} > ; + ; 2 p P _ _ a.y._ =.p p x V Y x T r J.b.l x > p s ( ] 2 l ; 3 , U m.I w F.%X'.Z Z ",
"=.;.s G T u u u x _ *XlXI.T u >XL.V &.C.c.x k 2 k I b =.I @.y.( G G l P _ _ p x ) V.x J 3 3 S J _ b 2 ; : ; 3 p P.E T.@X'. X'.X.",
"qXY..X].].P.>.:.U.F.!.y.X > u =.:.V.) ;.7._ 4.] i x ( [ V b.=.( D l p P } b p I 6.b.} S 3 3 p T _ x 3 $ ; > > u y.pX@XP x N /.zX",
"'.s.t.P.>X@XP.M N yXb.* 2 > , U I I x B @.g x b l 4 Y ) _ 4.L R L 3 p J =.` I x D.6.U F + > G I ;.x l D @ p u N @X3X;.s p > =.*X",
"Z &.b.y.d.'.uX].&X) 2 G l 5 9 2 U G ) x V / K l l G @./ 6.P S L L x a P =.b.T ` A.V > U F u p I N.7.( > s u u m.XXXXI G i J U J ",
"> > % > Z u.H.qX/.> D S G K G 2 S  ., F i x b.J p p V.) } 2 , F G J Y V.a.Z.] =.b.> K D G G x &.s.J._ x s u N dX XY.T S s U u 3 ",
"3 3 l G V 8.3.*XJ.* > 3 l D ( l S } + u p r -..Xn.=.P.}.=.J 3 3 > J y.L.) B Z.y.K ; > F G G y.P.#.%.;.V x s @.+X X7XP F P s I p ",
"` _ K l k W r i.Y.t p p p l J b Y s.N a z x P l >.>XD.d./.T 2 l p >.uXi.t.h ) qXi 3 ; 3 > _ 2Xt.) t V &.@.m.@X XY.N P U s s @.=.",
"N x 2 2 z i = 4.m.N i p i x l U '.D.s.+.) @.p > * a  Xt.'.V./ V Y .X;.k v &.;.%XdX* l x s oXd.&.b.Y M +.d. XE y.@.Y s ;.P x x z ",
"x % ; ; 2 J l > ^.i x i s I =.=.Y *.t.t.m.z 2 * w N '.d.a @.D.6.P./.N s s I :.V.^.Z.V N V.L.u s s 7.L.L.4XM P :.a @.T Y t.N _ x ",
"| S.^ D < 3 J b ^.XXx P _ G x u N ;.D.P./ i p p * I m.@.N =.) ^.V.y.>.Y x I P J z y.!.P.'.;.a u @ u N a.>X:.M.p a P E @.P.Y.M.G ",
"G 3 _ ] J ( ] A.|.tXP.I S S @ s I.F.y.>X_ a * > u >.&XT I p b @.Y.a.d.t.I p F p 5.x ;.D.'.P.@.N V x N V F.>.>.E s s f a.2XuXM.x ",
"} J U c l > r b.E t >Xy.@ @ s Y.x.O - N U.) z i O Y.oXs u S G b.y.f @.7._ J p L J U ) J.J.@.L.y.Y a w w y.O w :.x.t.t.W.^.yXxX-.",
"T x x i ; ; l i 2 O +.tXdX>X3X Xu u p p J $.=.@.L.gXXXY N =.:._ Y $.&.( } | K l c J M.B.P V =.i.;.@.Y t  X*.f &.dXW.F.t.,.s.m.I.",
"@.I x p 9 9 5 > > i >.Y.Y.2XuXm._ p G L J I g M D.%.y.,XD.&.P i ) Y x x x 5.) b ] ` l % > ( I =.y.t.m.H. Xd.t.tXzXP f f Y A t.&.",
"6.x P * 3 F 2 l a @.s.:.i :.:.T I U T G x b B 6.s.a x @X;.+.z J G F _ i z B 6.J.) x l 3 3 > p p Y ;.&.E &.H.@X2Xm.,.:.N ) M  Xa.",
"6.Y I l D D 3 k V @.F.I.@ M.I.a a p i G x k z j.$.x ] I.V Y @.l  .=.x ) W V #.$./ P J x G 2 U U N Z Y.@Xb.N E b.@XlXgXF.y.b.XX6X",
"d.@.P p p D I k a m.6X X@.'.F.i i > 2 J G b ) @.) u F 7.x N $.7.m.T =.E @.) x p ) 7.] x I P S T I.F.x.S.C.u p P N s.D.^.I G N Y.",
"t.@.s x D U = i B./.].,XH.J.L.& 2 > * - / | z z ;.* U K T ] ' Y N ;.y.t.=.J l i p _ C.D.a.Y u :.M.x > K _ } G s N b.&.&.P P N Z ",
"P.&.I p 2 k N.8.; , /.U m.Y a.{.@.c b 5.( % / ) ^.^.G G =.x l V E D.P.P.I N P P P :.:.N Y m.&.D.T s p G J m.} N _ :.@.Y L.N a D.",
"Z @.Z x p K _ N.p 3 x =.i a @.&.V.Z @.b c K [ b.i..XC.G p p * :.Y.E >.].T N V z s =.M.>.A E G.3X;.s u I C.x y.x T x _ Z '.W.p.*.",
"u.).s.1._ [ ~ ` 4.= k 1.e ) / r t.) ( 3 5 k ..c.x _ 5X:.u i =.}.a u > i I.;.Y z x C.@.Y.d.d.=XhX3X[.a.6.c p _ b.[ T & D.iXR.<.q.",
"_.C j V.@.k 4 k [ g z 1.= ' c b K.i.p H 4 k / I i & m.6XkXyX6Xy.> 2 i i ) ;.*.b.i.) M t X.&.K.).G.G.0Xp.B k V 6./ = V J.).e.z.l.",
"K.p.& r $.- 2 % W z k [ n 8.#.s.V.z p 9 4 6 ( b = Y =.a.b.Y.'.@._ J x V 4.a.m.t.@.V 6.i.&.$.z ) W.,X{.{.) h Q 8.Z B H.u.k % B Q ",
"<.H.= ( ^.i % 2 ] 1.= W h 3.z.z.%.' < F 5 H l c I _ y.Z a Y 6.b x x x V 6.D.L.'.D.6.5.T i * I i O +.P.#.~.g.Q u.8.H.k.h 3 l k k ",
"M H.k v 1.Z./ k c 0.` / 6.#.[.z.!.W < 5 D 2 H G / ( B.;.g J.8.z c V z Q !.{.Z.6._ x , 3 7 , D / N M +.Q B M ) 3.1Xg.Z x D 9 ; c ",
"V.J./ V ) f.' * * i J k V tX_.! W / [ | [ c x i x B.x.7./ 9.I k k k B #.).K.B V V i 2 ; $ 7 p K a @.6.7.u.$.v W hXh b c ( 4 k k ",
"] x v Z @.) u.) * b b r t L.#.z ~ b ( k c / k b _ | =.( W 4.~ - c V.#X~._.qXQ Q 8.f.x 2 ; # 5 b V +.A.I G c H ..9X%.2 G b b a y.",
"~ c x i x c ) f.W 6.6.q t.@XM = r 4 c c k Q ) i i U =.r b W [ 4.f.^.Z.#.g f.#X%.#.k.J.) / J K ( ) 8._ p 6 H 4 2 H.=Xw = g h.^.N.",
"H p x p 2 G G 4 J.#X#X2XwXeX@.k 5 6 6 < k W !.$XL.y.=.$.] [ ..~ ~ ] = = k 1.2.H.3.3.3.3.f.9.J b ) 8.K ; 1 0 5 k e.[.a.w M ).t.;.",
"5 2 D l D G c r & u.D.!.'.wXY.= c 6 < ~ ..' {.{.H.V.^.i.Z.v < [ ~ 4 c 4 = v ' B u.m #.1.b ) x k z V.5 9 1 # < k %.|.[.w.V.) ) N ",
"b 2 c c 2 c ( i ) $.@.g M qX<Xu.W c ..` c ~ c ] ' z 2.8.$.W ~ ~ ~ k 6 4 5 b k ] / 5./ 4.1.b c * h Q.= < 1 5 2 k &.3X8XrXY N &.E ",
"x a * k b Z / @.V ) $.z = ) #X X!.' k 4 c k c 4 / 4.Z %.Q.] ~ g ~ c c c / b = 4.2 H l = 4.=.- 4 W !.2 4 5 # = N @.}.`.zXy.a +.Y ",
">X^.$.1.V.1X!.3.V J V b 4 i j.j g.m c 5 5 1 5 b g / W 3.9./ 4 k k [ [ ' [ v g 6.- % < p J *XU.i.h.#X6.) J G ) ) z t.,.+X'.]. X%X",
"x b J.h.W B |. XV b k / | 0.$.Q e.Q b 0 4 5 4 4 ~ ^.!.9.~ ` c c W ..1.W W Q W Q.' b b ( ( / ] !.=Xk.6.) k i Z +.@.) V ,.d G.h v ",
"% = h s.B M k.3.8.8.Q.^.f.' ' v h.' < 0 H ~ b c *X!.}.Z.b c ( ^ 6 5 4 c ..W H.!.g.q.e.3.b k 2   [.G.3.4.t.s.d.*./ +.z 6.O.l.g = ",
"/ ) V.hX:X3.l.n & e y 3.%.r g ~ ` / 9 1 < ~ 4.h.J.y Q $.k 4 c c < H ` 0.4.' 1.#.l.r.k.2.i 2 ; o P.W.y.6.P.:XrXgXJ._ &.H.wX#Xh.Q ",
"I 8.u. XiX|.j.B 1.3.! h.Z.1.f.` ~ H  ...^ ^ k 2.) r $.$.g 4 2 2 l H 5.I [ r ! 2.~._.p.W 2 3 ; % P.G.V p z z k.=X{.h.' V g.=Xe.! ",
"6.2.B e Q ).g.@.' 8.h.$Xz k ..c 0 ~ 6 4 5 5 I '.b - 6.Q.4.5./ c 3 3 4.$.i z H.J.e.!.Q.z 2 p 2 i [.K.i i i v %.k.o.B g B Q h.2.%.",
"X.B X.h e.).#.z b i B *Xb < 4 4 < < 4 6 < ( qXL.& =.}.8...| b b I 4.N.u.X.!.K.q g k 9.Z.B r * 3.iXO.a k Q ) h.u.o.#.) ' / v Z.) ",
"~.! h.K.{.3.Q c c x 4.= = 6 ( c 4 < g 4 6 6 ^.1X&.Z h z [ 4.( k v J.1XiXeX-XQ t k i b ) 3.1.H.hXeXp.3.s.u.Q.}.K.l.3.B c J / k U.",
",Xe.K.=Xo.Q ' V / 8.* k ~ W c 4 2 5 ~ 4 p G +X+Xd.D.t g V / 4./ ' V.,X=X=X[.&./ c J J c y B s.p.X.tX1XH.j.u.v Q ~.g.' b b H 2 I ",
"i.2.~.,XB 4.) W ) k c ` j.W 4 ~ J 2 b 2 o b.rXrX-X&.) @.] [ / W ) s.1X_.R.%.M Y I G i c k Q h.Q e {.{.C #.6.' B 2.H./ b l 9 2 k ",
"$.3.%.9XX.H.) J.f.$./ I W ..c W ` [ / z x t.-XaX+X+Xy.@.x 2 v $.i.Q q.e.w.M i l = K c Z k 6.u.B y <Xp.g B / $.B m ~.b 4 c D 5 | ",
") @.M  X).{.V.!.) k c l b [ v / ( ] 2.Q Z K.rXR.<.f s s = g 1.Z.h.2.X.d.w.&.k p 2 l / W 1.1.$.c k |.Z z V ` ] b W f.b 2 3 5 k 9.",
"@.E N D.-XR.#.Z ) z D l 3 c ` x c l v W h.%.sX*.A N x i v h.l.h.2.h.e.! h Q.] 2 % l W 3.Q ! W 1.Q H.=.[ / b b / W 3.4 1 l D k i.",
"D.N n +X-X).C C ) r 5 l J V x > - k Z.zXwXK.z.3XZ &.a.f.1.h.2.! j.2.#.Q Q ,X4.b c ~ W ' #.! ' ) ! '.8.x ( b b / 1.b % 9 9 5 x ` ",
"D.G.8XR.h.).).G.p.k.6.6.s.z z N h.H.<XqXW z w ^. X*.#.j.l.1.W W v ' h.3.j.qXb v ~ / ' ] 1.2.v Q 3.k.V I i x I / / c 2 2 D c k / ",
"R.3XR.M a a H.jX;XR.#X[.#X=Xs.u.e._.$X! & k z &.E s.Q 8.! u.1.W b v g #.{.lXqX#.v W W v W k ] Q l.K.] i c k W $.1.c 3 D l b J V ",
";X;XO.M a z t.{.l.r.q.`.wX,X1Xn l.#Xh.v k r b r ) Z ) v j.2.~.8.~ J 1.o.! p.B 3.Z.J.Q B b I b @.|.#.z J z b b @.u.) b K c x b $.",
"+X+XC z l / r 6.h o.q.O.X.!.0XeX|.e._.!.g c f.W / V W [ 2.! r._.c z Q.2.X.p.1.v n ) f.^.J.+.z t.K.B k ] b I Q ' !.V.` z z z %.qX",
"=Xe.z r 2 c c.N.= = %.z 6.#.g.eX`.O.! N.] . [ ~ 1...= ~ 8.$Xl._.H.%.#.|.).;X;Xp.p.w.3.Z #.W.s.K.#.i l x b A.3.) #.g.3.W p.B Q iX",
"X.3.%.x G ~ ` C.2 i x 9.x k #.O.z.m #.g ~ ~ ..W W 1.4 g ! 2.! e.e.h.e h p.;X;XO.C Z h.k.*.%.).2Xa.I k ` A.B N.W X.B o.o.%X|.a.#."
};
